<?xml version="1.0" encoding="UTF-8" standalone="no"?>
<!-- Created with Inkscape (http://www.inkscape.org/) -->

<svg
   width="772.99182"
   height="254.18013"
   viewBox="0 0 772.99182 254.18013"
   version="1.1"
   id="svg5"
   inkscape:version="1.2 (dc2aedaf03, 2022-05-15)"
   sodipodi:docname="logo.svg"
   xmlns:inkscape="http://www.inkscape.org/namespaces/inkscape"
   xmlns:sodipodi="http://sodipodi.sourceforge.net/DTD/sodipodi-0.dtd"
   xmlns="http://www.w3.org/2000/svg"
   xmlns:svg="http://www.w3.org/2000/svg">
  <sodipodi:namedview
     id="namedview7"
     pagecolor="#ffffff"
     bordercolor="#000000"
     borderopacity="0.25"
     inkscape:showpageshadow="2"
     inkscape:pageopacity="0.0"
     inkscape:pagecheckerboard="0"
     inkscape:deskcolor="#d1d1d1"
     inkscape:document-units="px"
     showgrid="false"
     inkscape:zoom="0.64033023"
     inkscape:cx="526.29095"
     inkscape:cy="274.85818"
     inkscape:window-width="1920"
     inkscape:window-height="1017"
     inkscape:window-x="1912"
     inkscape:window-y="-8"
     inkscape:window-maximized="1"
     inkscape:current-layer="layer1" />
  <defs
     id="defs2" />
  <g
     inkscape:label="Camada 1"
     inkscape:groupmode="layer"
     id="layer1"
     transform="translate(-296.50409,-181.04023)">
    <g
       aria-label="DEV WEB"
       id="text741"
       style="font-weight:bold;font-size:166.048px;font-family:Corbel;-inkscape-font-specification:'Corbel Bold';fill:#ececec;stroke-width:0.864831">
      <path
         d="M 356.23932,310.96515 V 202.48261 h 28.70165 q 3.81067,0 7.70242,0.24324 3.97283,0.24323 7.70243,0.7297 3.72959,0.48647 7.21595,1.21617 3.48636,0.64863 6.40517,1.62157 8.67536,2.75665 15.32377,7.45918 6.6484,4.70254 11.1077,11.10771 4.54038,6.40517 6.81056,14.35083 2.35127,7.86457 2.35127,17.10748 0,8.75644 -1.94588,16.45886 -1.94587,7.62135 -5.9187,13.94544 -3.97283,6.32409 -10.05369,11.18878 -5.99978,4.78361 -14.26975,7.86458 -6.89164,2.5945 -15.64808,3.89175 -8.75643,1.29725 -19.70198,1.29725 z m 28.05303,-16.62102 q 17.43179,0 27.24225,-4.78361 8.67536,-4.29714 13.13465,-12.48603 4.4593,-8.18889 4.4593,-20.91815 0,-6.64841 -1.4594,-11.99957 -1.45941,-5.35115 -4.21607,-9.48614 -2.75665,-4.21606 -6.72948,-7.21595 -3.89175,-2.99989 -8.83752,-4.94577 -4.62145,-1.78372 -10.29692,-2.5945 -5.67547,-0.81078 -12.72927,-0.81078 h -8.75643 v 75.2405 z"
         id="path13132" />
      <path
         d="m 490.50469,294.34413 h 53.34941 v 16.62102 H 470.64055 V 202.48261 h 70.29474 v 16.62102 h -50.4306 v 28.05303 h 43.29572 v 16.62102 h -43.29572 z"
         id="path13134" />
      <path
         d="m 605.14917,284.4526 q 2.99989,-8.83751 4.29714,-12.56711 1.37832,-3.81067 5.67547,-15.48592 l 20.10737,-53.91696 h 20.99924 L 613.82452,310.96515 H 595.98734 L 553.58348,202.48261 h 21.16139 l 20.10737,53.91696 q 4.29714,11.67525 5.59439,15.48592 1.37833,3.7296 4.37822,12.56711 z"
         id="path13136" />
      <path
         d="m 758.46791,231.02212 q -3.16205,15.16161 -7.29703,31.29615 l -12.16172,48.64688 H 719.2261 L 684.76789,202.48261 h 21.1614 l 13.05357,43.21465 q 5.91871,20.35061 9.56722,36.80947 h 0.48647 q 3.56744,-17.67504 8.26997,-36.24193 l 11.18878,-43.78219 h 20.43169 l 11.18878,43.78219 q 4.70253,18.40474 8.26997,36.24193 h 0.48647 q 4.4593,-19.45875 9.56722,-36.80947 l 13.05358,-43.21465 h 21.16139 l -34.45821,108.48254 h -19.78306 l -12.16172,-48.64688 q -4.13498,-16.45886 -7.29703,-31.29615 z"
         id="path13138" />
      <path
         d="m 867.11258,294.34413 h 53.34941 v 16.62102 H 847.24844 V 202.48261 h 70.29474 v 16.62102 h -50.4306 v 28.05303 h 43.29572 v 16.62102 h -43.29572 z"
         id="path13140" />
      <path
         d="m 1020.107,231.34643 q 0,7.0538 -3.162,12.9725 -3.1621,5.83762 -10.4591,9.72937 v 0.32432 q 4.0539,1.37832 7.3781,3.56743 3.4053,2.10804 5.7565,5.10793 2.4324,2.91881 3.7296,6.6484 1.3784,3.7296 1.3784,8.35105 0,3.97283 -1.2973,8.5132 -1.2162,4.54038 -4.3782,8.83752 -3.1621,4.21606 -8.4321,7.7835 -5.2701,3.56744 -13.29685,5.67547 -2.02696,0.48647 -4.4593,0.89186 -2.35127,0.40539 -5.27008,0.7297 -2.91881,0.24323 -6.48625,0.40539 -3.56744,0.0811 -8.02673,0.0811 h -31.5394 V 202.48261 h 37.70133 q 12.08064,0 19.45875,2.43235 5.51333,1.78372 9.56723,4.70253 4.0539,2.83773 6.6484,6.40517 2.6756,3.48636 3.8917,7.45919 1.2973,3.89175 1.2973,7.86458 z m -58.70056,32.43125 v 30.56645 h 12.9725 q 5.189,0 8.91859,-0.24323 3.72959,-0.32431 6.40517,-0.97294 4.13499,-0.89186 6.89164,-2.35126 2.75666,-1.54049 4.45926,-3.40529 1.7027,-1.94587 2.4324,-4.21606 0.7297,-2.35126 0.7297,-4.94576 0,-4.54038 -2.5134,-7.94566 -2.51346,-3.40528 -7.86461,-5.10792 -2.35127,-0.72971 -5.51332,-1.05402 -3.16204,-0.32431 -8.10781,-0.32431 z m 17.91826,-16.62102 q 8.10781,0 12.08064,-1.62156 4.4593,-1.8648 6.3241,-5.10792 1.94587,-3.3242 1.94587,-7.45919 0,-4.29714 -2.18911,-7.62134 -2.18911,-3.40528 -7.45919,-5.02685 -2.18911,-0.64862 -5.10792,-0.89186 -2.91881,-0.32431 -7.21595,-0.32431 h -16.2967 v 28.05303 z"
         id="path13142" />
    </g>
    <path
       id="rect1007"
       style="fill:#ececec;fill-opacity:1;stroke:none;stroke-width:0.864831"
       d="M 348.74628 329.44843 L 348.74628 418.04218 L 1017.2541 418.04218 L 1017.2541 329.44843 L 348.74628 329.44843 z M 413.17987 352.17109 L 456.33026 352.17109 L 456.33026 362.25703 L 423.82831 362.25703 L 423.82831 368.70234 L 456.33026 368.70234 L 456.33026 378.78828 L 423.82831 378.78828 L 423.82831 395.31953 L 413.17987 395.31953 L 413.17987 352.17109 z M 471.45917 352.17109 L 482.10565 352.17109 L 482.10565 385.23164 L 503.96112 385.23164 L 503.96112 352.17109 L 514.60761 352.17109 L 514.60761 395.31953 L 471.45917 395.31953 L 471.45917 352.17109 z M 529.73847 352.17109 L 540.38495 352.17109 L 540.38495 385.23164 L 572.8869 385.23164 L 572.8869 395.31953 L 529.73847 395.31953 L 529.73847 352.17109 z M 588.01581 352.17109 L 598.66425 352.17109 L 598.66425 385.23164 L 631.1662 385.23164 L 631.1662 395.31953 L 588.01581 395.31953 L 588.01581 352.17109 z M 676.55487 352.17109 L 719.70331 352.17109 L 719.70331 362.25703 L 687.20331 362.25703 L 687.20331 368.70234 L 719.70331 368.70234 L 719.70331 395.31953 L 676.55487 395.31953 L 676.55487 385.23164 L 709.05682 385.23164 L 709.05682 378.78828 L 676.55487 378.78828 L 676.55487 352.17109 z M 734.83417 352.17109 L 777.98261 352.17109 L 777.98261 362.25703 L 761.73261 362.25703 L 761.73261 395.31953 L 751.08417 395.31953 L 751.08417 362.25703 L 734.83417 362.25703 L 734.83417 352.17109 z M 806.05682 352.17109 L 823.31659 352.17109 L 840.57636 395.31953 L 827.63104 395.31953 L 824.15839 386.07343 L 805.21698 386.07343 L 801.74237 395.31953 L 788.79901 395.31953 L 806.05682 352.17109 z M 851.39081 352.17109 L 894.5412 352.17109 L 894.5412 362.25703 L 862.03925 362.25703 L 862.03925 385.23164 L 894.5412 385.23164 L 894.5412 395.31953 L 851.39081 395.31953 L 851.39081 352.17109 z M 909.67011 352.17109 L 920.31659 352.17109 L 920.31659 368.70234 L 938.25018 352.17109 L 952.81854 352.17109 L 934.55097 369.54218 L 952.81854 395.31953 L 939.70722 395.31953 L 926.53729 377.16328 L 920.31659 383.10273 L 920.31659 395.31953 L 909.67011 395.31953 L 909.67011 352.17109 z M 814.68768 360.8 L 808.97089 375.98554 L 820.40253 375.98554 L 814.68768 360.8 z " />
  </g>
</svg>
